<svg width="12" height="12" viewBox="0 0 12 12" fill="none" xmlns="http://www.w3.org/2000/svg">
<path d="M9.13576 1.15381H2.86428C1.91965 1.15381 1.15387 1.91958 1.15387 2.86421V9.1357C1.15387 10.0803 1.91965 10.8461 2.86428 10.8461H9.13576C10.0804 10.8461 10.8462 10.0803 10.8462 9.1357V2.86421C10.8462 1.91958 10.0804 1.15381 9.13576 1.15381Z" fill="#5019C5"/>
<path fill-rule="evenodd" clip-rule="evenodd" d="M5.99616 6.83098C5.76728 6.83098 5.5619 6.6951 5.4743 6.48474L4.41846 3.96362H5.03643L5.99976 6.26989L6.96216 3.96362H7.58016L6.51797 6.48566C6.42996 6.69511 6.22499 6.83098 5.99616 6.83098ZM7.37385 8.03564C7.1459 8.03564 6.94143 7.90064 6.85296 7.69212C6.76402 7.48175 6.81003 7.24161 6.97079 7.07864L8.89379 5.13081L9.13393 5.6973L7.37343 7.47723L9.88282 7.46324L10.123 8.02978L7.37431 8.03652L7.37385 8.03564ZM2.11717 7.46232L1.87701 8.02886L1.87792 8.02798L4.62654 8.03426C4.85362 8.03426 5.059 7.89977 5.14748 7.69074C5.23688 7.48083 5.19036 7.23981 5.0297 7.0773L3.10666 5.12943L2.86651 5.69597L4.62654 7.47635L2.11717 7.46232Z" fill="white"/>
</svg>
