<svg viewBox="0 0 24 24" fill="none" xmlns="http://www.w3.org/2000/svg">
  <path d="M12 2L2 7v10c0 6.27 4.12 10.65 10 12 5.88-1.35 10-5.73 10-12V7l-10-5zm0 2.18l8 4v8.82c0 4.83-3.13 8.37-8 9.77-4.87-1.4-8-4.94-8-9.77V8.18l8-4z" fill="#4285F4"/>
  <path d="M12 6L6 9v6c0 3.77 2.47 6.38 6 7.38 3.53-1 6-3.61 6-7.38V9l-6-3z" fill="#34A853"/>
  <path d="M12 8.5L8.5 10.5v3c0 2.22 1.47 3.77 3.5 4.38 2.03-.61 3.5-2.16 3.5-4.38v-3L12 8.5z" fill="#FBBC04"/>
  <path d="M12 11a1.5 1.5 0 1 0 0 3 1.5 1.5 0 0 0 0-3z" fill="#EA4335"/>
</svg>
