<svg width="12" height="12" viewBox="0 0 12 12" fill="none" xmlns="http://www.w3.org/2000/svg">
<path d="M9.24166 1.12451H2.75835C1.85597 1.12451 1.12445 1.85603 1.12445 2.75841V9.24172C1.12445 10.1441 1.85597 10.8756 2.75835 10.8756H9.24166C10.144 10.8756 10.8756 10.1441 10.8756 9.24172V2.75841C10.8756 1.85603 10.144 1.12451 9.24166 1.12451Z" fill="#F55036"/>
<path d="M6.01109 2.76937C4.74274 2.75877 3.70342 3.74061 3.69241 4.96206C3.6814 6.18352 4.70092 7.18446 5.96923 7.19507H6.76635V6.36592H6.01109C5.21835 6.37437 4.56659 5.76366 4.55778 4.9981C4.54897 4.23258 5.18314 3.60701 5.97805 3.59853C5.98903 3.59853 6.00006 3.59853 6.01109 3.59853C6.80378 3.59853 7.44675 4.21774 7.45114 4.98117V7.01904C7.45114 7.7761 6.81038 8.39318 6.02646 8.40167C5.64994 8.39955 5.29105 8.25324 5.02681 7.99663L4.41685 8.58403C4.83961 8.99332 5.41215 9.22658 6.01109 9.23083H6.04188C7.29481 9.21384 8.30111 8.23414 8.30771 7.02754V4.92601C8.27688 3.72788 7.25738 2.7715 6.01109 2.76937Z" fill="white"/>
</svg>
