<svg width="12" height="12" viewBox="0 0 12 12" fill="none" xmlns="http://www.w3.org/2000/svg">
<path d="M1.579 2.17849C1.68962 2.04003 1.94772 1.80003 2.15052 1.65234C2.35332 1.50464 2.63907 1.38464 2.78656 1.38464C2.95249 1.38464 3.09076 1.45849 3.17373 1.59695C3.24747 1.70772 3.54245 2.37234 3.81899 3.06464C4.10475 3.76618 4.3352 4.42157 4.3352 4.52311C4.3352 4.69849 4.31677 4.70772 3.76368 4.56926C3.44105 4.48618 2.93405 4.3108 2.62986 4.16311C2.32566 4.01541 1.92007 3.72003 1.73571 3.51695C1.45916 3.22157 1.38542 3.06464 1.38542 2.79695C1.3762 2.57541 1.44994 2.35387 1.579 2.17849Z" fill="#594CE9"/>
<path d="M8.20671 2.95387C8.46485 2.31695 8.74136 1.70772 8.81511 1.59695C8.8981 1.45849 9.04556 1.38464 9.2023 1.38464C9.34053 1.38464 9.61708 1.49541 9.81988 1.64311C10.0227 1.7908 10.2716 2.00311 10.373 2.12311C10.502 2.2708 10.5573 2.45541 10.5573 2.76926C10.5573 3.15695 10.5113 3.26772 10.2347 3.55387C10.0596 3.73849 9.66319 4.00618 9.35899 4.15387C9.05479 4.30157 8.53856 4.48618 7.60754 4.70772L7.66284 4.40311C7.69971 4.24618 7.93939 3.5908 8.20671 2.95387Z" fill="#594CE9"/>
<path d="M2.17813 4.98467C2.1136 4.7539 2.03064 4.48621 1.99377 4.3939C1.95689 4.26467 1.97533 4.22775 2.05829 4.26467C2.1136 4.30159 2.4178 4.43082 2.722 4.55082C3.02619 4.68005 3.60693 4.85544 4.01253 4.93852C4.50108 5.04005 5.17402 5.09544 5.9944 5.09544C6.8056 5.09544 7.49694 5.04005 7.97629 4.93852C8.38189 4.85544 9.00871 4.66159 9.35902 4.5139C9.71851 4.37544 10.0135 4.26467 10.0319 4.2739C10.0412 4.28313 9.9766 4.45852 9.89366 4.66159C9.78303 4.92005 9.73697 5.29852 9.72774 5.9539C9.72774 6.62775 9.77385 6.98775 9.89366 7.29236C9.98583 7.52313 10.0412 7.71698 10.0319 7.72621C10.0135 7.73544 9.71851 7.62467 9.35902 7.48621C9.00871 7.33851 8.38189 7.14467 7.97629 7.06159C7.48775 6.95082 6.81483 6.90467 5.9944 6.90467C5.17402 6.90467 4.50108 6.95082 4.01253 7.06159C3.60693 7.14467 2.98932 7.33851 2.62981 7.48621C2.27953 7.62467 1.97533 7.73544 1.96611 7.72621C1.95689 7.71698 2.03064 7.47698 2.12282 7.20005C2.23343 6.89544 2.30718 6.4339 2.30718 6.04621C2.30718 5.69544 2.25187 5.21544 2.17813 4.98467Z" fill="#594CE9"/>
<path d="M2.62982 7.84619C2.93401 7.6985 3.43179 7.52311 3.72677 7.44926C4.21533 7.32926 4.27985 7.3385 4.30751 7.46773C4.33516 7.5508 4.17845 8.04927 3.96644 8.58465C3.75443 9.12003 3.47788 9.78465 3.33961 10.0616C3.13681 10.477 3.04463 10.5693 2.84183 10.597C2.69435 10.6062 2.44546 10.5323 2.28875 10.44C2.12282 10.3477 1.84628 10.117 1.68958 9.93234C1.4499 9.67388 1.38538 9.51696 1.38538 9.2308C1.38538 8.93542 1.4499 8.78773 1.73567 8.48311C1.92003 8.28003 2.32562 7.98465 2.62982 7.84619Z" fill="#594CE9"/>
<path d="M8.20675 9.04616C7.93942 8.40924 7.70898 7.77232 7.69056 7.62463L7.65369 7.35693L8.06847 7.41232C8.29892 7.44924 8.75986 7.5877 9.11012 7.72616C9.51572 7.89232 9.88444 8.13232 10.1886 8.41847C10.6495 8.86155 10.6495 8.87078 10.585 9.30463C10.5481 9.54463 10.4467 9.82155 10.3546 9.91386C10.2624 10.0062 10.0227 10.2092 9.81992 10.3569C9.61712 10.5046 9.34056 10.6154 9.20233 10.6154C9.03636 10.6154 8.89813 10.5415 8.81515 10.4123C8.74139 10.2923 8.46489 9.68309 8.20675 9.04616Z" fill="#594CE9"/>
</svg>
