<svg width="12" height="12" viewBox="0 0 12 12" fill="none" xmlns="http://www.w3.org/2000/svg">
<path d="M9.56704 1.12451H3.08373C2.18135 1.12451 1.44983 1.85603 1.44983 2.75841V9.24172C1.44983 10.1441 2.18135 10.8756 3.08373 10.8756H9.56704C10.4694 10.8756 11.2009 10.1441 11.2009 9.24172V2.75841C11.2009 1.85603 10.4694 1.12451 9.56704 1.12451Z" fill="#D9FE00"/>
<path fill-rule="evenodd" clip-rule="evenodd" d="M10.1538 2.41048H8.76921V8.5284C8.76921 8.5284 10.1538 8.44089 10.1538 6.77622V2.41048ZM1.84613 5.22388V9.58625H3.23075V3.46832C3.23075 3.46832 4.0627 3.34696 4.50267 4.4144L6.24639 8.62772C6.53162 9.30965 6.99856 9.69235 7.65796 9.69235C8.31736 9.69235 8.76921 9.13182 8.76921 8.53122C8.76921 8.53122 7.93724 8.65255 7.49458 7.58571L5.75356 3.37236C5.46833 2.69046 5.00139 2.30774 4.342 2.30774C3.68258 2.30774 3.23075 2.86771 3.23075 3.46832C3.22805 3.46832 1.84613 3.55864 1.84613 5.22388Z" fill="#002C44"/>
</svg>
