<svg width="12" height="12" viewBox="0 0 12 12" fill="none" xmlns="http://www.w3.org/2000/svg">
<path d="M9.24166 1.12451H2.75835C1.85597 1.12451 1.12445 1.85603 1.12445 2.75841V9.24172C1.12445 10.1441 1.85597 10.8756 2.75835 10.8756H9.24166C10.144 10.8756 10.8756 10.1441 10.8756 9.24172V2.75841C10.8756 1.85603 10.144 1.12451 9.24166 1.12451Z" fill="black"/>
<path d="M4.94706 2.67265C4.93488 2.68094 4.92879 3.13073 4.93082 3.75671L4.93488 4.82627C2.26304 7.55817 1.49212 8.35621 1.4982 8.36655C1.50226 8.37486 2.27724 8.38109 3.22061 8.38109H4.93488C4.93488 6.71041 4.94097 6.22123 4.95113 6.21712C4.95925 6.21089 5.4441 6.69592 6.03043 7.29495L7.09548 8.38109C9.74503 8.38109 10.518 8.37486 10.522 8.36452C10.5281 8.35621 9.28045 7.06903 7.74874 5.50404C6.21703 3.93912 4.95722 2.66436 4.94706 2.67265Z" fill="#26D57A"/>
</svg>
