<svg width="12" height="12" viewBox="0 0 12 12" fill="none" xmlns="http://www.w3.org/2000/svg">
<path d="M11.049 10.6154H10.5364V4.3314C10.5364 3.02615 9.457 1.89807 8.12491 1.89807H4.76398C3.43191 1.89807 2.35613 2.97553 2.35613 4.2844C2.35613 5.58963 3.43191 6.66714 4.76398 6.66714H5.09971C5.66288 6.66714 6.12497 7.12992 6.12497 7.69397C6.12497 8.25801 5.66288 8.7172 5.09971 8.7172H1.81824V8.20738H5.07446C5.35605 8.20738 5.58709 7.97597 5.58709 7.71926C5.58709 7.43726 5.35605 7.23114 5.07446 7.23114H4.73874C3.15033 7.20584 1.81824 5.89697 1.81824 4.2844C1.81824 2.6682 3.15033 1.38464 4.76398 1.38464H8.1502C9.73858 1.38464 11.049 2.74413 11.049 4.3314V10.6154Z" fill="#EE7624"/>
<path d="M5.125 6.28009C5.84338 6.30538 6.53652 6.94899 6.53652 7.71552C6.53652 8.48564 5.89392 9.1509 5.09971 9.1509H1.81824V9.66432H5.07446C6.15026 9.66432 7.04551 8.79298 7.04551 7.71552C7.04551 7.43707 6.99497 7.18036 6.86864 6.92366C6.76392 6.69229 6.58706 6.46087 6.40655 6.28009C6.2008 6.1029 5.96975 5.97275 5.71341 5.87153C5.40658 5.77027 5.09971 5.79556 4.76398 5.77027C4.5835 5.77027 4.17557 5.66541 3.94453 5.51356C3.71349 5.35807 3.53299 5.15199 3.43191 4.92423C3.35249 4.7181 3.30195 4.51203 3.30195 4.28062C3.30195 3.48518 3.94453 2.84521 4.73874 2.84521H8.12131C8.91548 2.84521 9.55808 3.53942 9.55808 4.30593V10.6116H10.0707V4.33124C10.0707 3.25739 9.20071 2.33179 8.12131 2.33179H4.76398C3.68822 2.33179 2.79294 3.20316 2.79294 4.28062C2.79294 4.56264 2.84348 4.81936 2.96983 5.07607C3.07452 5.30749 3.22614 5.53886 3.43191 5.71604C3.61241 5.89683 3.86872 6.02338 4.09976 6.12824C4.22611 6.17883 4.35607 6.20416 4.50769 6.22946C4.86871 6.25475 5.09971 6.28009 5.125 6.28009Z" fill="#EE7624"/>
<path d="M5.07446 10.6153H1.81824V10.1019H5.07446C6.40655 10.1019 7.48231 9.02446 7.48231 7.71558C7.48231 6.41035 6.40655 5.33285 5.07446 5.33285H4.73874C4.17557 5.33285 3.71349 4.87006 3.71349 4.30602C3.71349 3.74198 4.17557 3.27917 4.73874 3.27917H8.12491C8.68808 3.27917 9.15017 3.76729 9.15017 4.33133V10.6117H8.63754V4.33133C8.63754 4.05293 8.40649 3.79621 8.1502 3.79621H4.76398C4.48242 3.79621 4.28026 4.02761 4.28026 4.28071C4.28026 4.53742 4.5113 4.76885 4.79288 4.76885H5.125C6.73868 4.76885 8.04908 6.07408 8.04908 7.66495C8.02383 9.30646 6.68814 10.6117 5.07446 10.6117V10.6153Z" fill="#EE7624"/>
</svg>
