<svg width="12" height="12" viewBox="0 0 12 12" fill="none" xmlns="http://www.w3.org/2000/svg">
<mask id="mask0_201_6" style="mask-type:luminance" maskUnits="userSpaceOnUse" x="1" y="1" width="10" height="10">
<path d="M10.9065 1.15387H1.21423V10.8462H10.9065V1.15387Z" fill="white"/>
</mask>
<g mask="url(#mask0_201_6)">
<path d="M9.19614 1.15387H2.92464C1.98001 1.15387 1.21423 1.91965 1.21423 2.86428V9.13576C1.21423 10.0804 1.98001 10.8462 2.92464 10.8462H9.19614C10.1408 10.8462 10.9066 10.0804 10.9066 9.13576V2.86428C10.9066 1.91965 10.1408 1.15387 9.19614 1.15387Z" fill="#F1EFED"/>
<path fill-rule="evenodd" clip-rule="evenodd" d="M8.12709 5.78625C9.07172 5.78625 9.83751 5.02046 9.83751 4.07582C9.83751 3.13119 9.07172 2.36542 8.12709 2.36542C7.18246 2.36542 6.41668 3.13119 6.41668 4.07582C6.41668 5.02046 7.18246 5.78625 8.12709 5.78625ZM8.12709 9.77736C9.07172 9.77736 9.83751 9.01157 9.83751 8.06694C9.83751 7.12231 9.07172 6.35657 8.12709 6.35657C7.18246 6.35657 6.41668 7.12231 6.41668 8.06694C6.41668 9.01157 7.18246 9.77736 8.12709 9.77736ZM5.84658 8.06694C5.84658 9.01157 5.0808 9.77736 4.13619 9.77736C3.19156 9.77736 2.42578 9.01157 2.42578 8.06694C2.42578 7.12231 3.19156 6.35657 4.13619 6.35657C5.0808 6.35657 5.84658 7.12231 5.84658 8.06694Z" fill="#D3D1D1"/>
<path d="M4.13619 5.78625C5.0808 5.78625 5.84658 5.02046 5.84658 4.07582C5.84658 3.13119 5.0808 2.36542 4.13619 2.36542C3.19156 2.36542 2.42578 3.13119 2.42578 4.07582C2.42578 5.02046 3.19156 5.78625 4.13619 5.78625Z" fill="#0F6FFF"/>
</g>
</svg>
