<svg width="116" height="82" viewBox="0 0 116 82" fill="none" xmlns="http://www.w3.org/2000/svg">
<rect x="20.1468" y="4.73169" width="3.84016" height="3.84016" fill="white"/>
<rect x="23.987" y="4.73169" width="3.84016" height="3.84016" fill="white"/>
<rect x="27.8271" y="4.73169" width="3.84016" height="3.84016" fill="white"/>
<rect x="31.6674" y="4.73169" width="3.84016" height="3.84016" fill="white"/>
<rect x="35.5075" y="4.73169" width="3.84016" height="3.84016" fill="white"/>
<rect x="39.3476" y="4.73169" width="3.84016" height="3.84016" fill="white"/>
<rect x="43.1878" y="4.73169" width="3.84016" height="3.84016" fill="white"/>
<rect x="47.0279" y="4.73169" width="3.84016" height="3.84016" fill="white"/>
<rect x="47.0279" y="0.891541" width="3.84016" height="3.84016" fill="white"/>
<rect x="43.1878" y="0.891541" width="3.84016" height="3.84016" fill="white"/>
<rect x="43.1878" y="8.57184" width="3.84016" height="3.84016" fill="white"/>
<rect x="47.0279" y="8.57184" width="3.84016" height="3.84016" fill="white"/>
<rect x="39.3476" y="8.57184" width="3.84016" height="3.84016" fill="white"/>
<rect x="35.5075" y="8.57184" width="3.84016" height="3.84016" fill="white"/>
<rect x="31.6674" y="8.57184" width="3.84016" height="3.84016" fill="white"/>
<rect x="27.8271" y="8.57184" width="3.84016" height="3.84016" fill="white"/>
<rect x="23.987" y="8.57184" width="3.84016" height="3.84016" fill="white"/>
<rect x="20.1468" y="8.57184" width="3.84016" height="3.84016" fill="white"/>
<rect x="47.0279" y="8.57184" width="3.84016" height="3.84016" fill="white"/>
<rect x="50.8681" y="8.57184" width="3.84016" height="3.84016" fill="white"/>
<rect x="50.8681" y="12.412" width="3.84016" height="3.84016" fill="white"/>
<rect x="50.8681" y="16.2522" width="3.84016" height="3.84016" fill="white"/>
<rect x="50.8681" y="20.0923" width="3.84016" height="3.84016" fill="white"/>
<rect x="50.8681" y="23.9325" width="3.84016" height="3.84016" fill="white"/>
<rect x="50.8681" y="27.7726" width="3.84016" height="3.84016" fill="white"/>
<rect x="54.7083" y="23.9325" width="3.84016" height="3.84016" fill="white"/>
<rect x="54.7083" y="20.0923" width="3.84016" height="3.84016" fill="white"/>
<rect x="54.7083" y="16.2522" width="3.84016" height="3.84016" fill="white"/>
<rect x="58.5484" y="20.0923" width="3.84016" height="3.84016" fill="white"/>
<rect x="70.0689" y="27.7726" width="3.84016" height="3.84016" fill="white"/>
<rect x="66.2287" y="27.7726" width="3.84016" height="3.84016" fill="white"/>
<rect x="62.3886" y="27.7726" width="3.84016" height="3.84016" fill="white"/>
<rect x="58.5484" y="27.7726" width="3.84016" height="3.84016" fill="white"/>
<rect x="58.5484" y="31.6128" width="3.84016" height="3.84016" fill="white"/>
<rect x="62.3886" y="31.6128" width="3.84016" height="3.84016" fill="white"/>
<rect x="66.2287" y="31.6128" width="3.84016" height="3.84016" fill="white"/>
<rect x="70.0689" y="31.6128" width="3.84016" height="3.84016" fill="white"/>
<rect x="62.3886" y="35.4529" width="3.84016" height="3.84016" fill="white"/>
<rect x="66.2287" y="35.4529" width="3.84016" height="3.84016" fill="white"/>
<rect x="70.0689" y="35.4529" width="3.84016" height="3.84016" fill="white"/>
<rect x="66.2287" y="39.2931" width="3.84016" height="3.84016" fill="white"/>
<rect x="66.2287" y="43.1333" width="3.84016" height="3.84016" fill="white"/>
<rect x="62.3886" y="43.1333" width="3.84016" height="3.84016" fill="white"/>
<rect x="58.5484" y="43.1333" width="3.84016" height="3.84016" fill="white"/>
<rect x="54.7083" y="39.2931" width="3.84016" height="3.84016" fill="white"/>
<rect x="50.8681" y="35.4529" width="3.84016" height="3.84016" fill="white"/>
<rect x="47.0279" y="31.6128" width="3.84016" height="3.84016" fill="white"/>
<rect x="43.1878" y="31.6128" width="3.84016" height="3.84016" fill="white"/>
<rect x="39.3476" y="31.6128" width="3.84016" height="3.84016" fill="white"/>
<rect x="43.1878" y="35.4529" width="3.84016" height="3.84016" fill="white"/>
<rect x="47.0279" y="35.4529" width="3.84016" height="3.84016" fill="white"/>
<rect x="47.0279" y="39.2931" width="3.84016" height="3.84016" fill="white"/>
<rect x="50.8681" y="43.1333" width="3.84016" height="3.84016" fill="white"/>
<rect x="54.7083" y="43.1333" width="3.84016" height="3.84016" fill="white"/>
<rect x="54.7083" y="46.9734" width="3.84016" height="3.84016" fill="white"/>
<rect x="58.5484" y="46.9734" width="3.84016" height="3.84016" fill="white"/>
<rect x="62.3886" y="46.9734" width="3.84016" height="3.84016" fill="white"/>
<rect x="54.7083" y="50.8136" width="3.84016" height="3.84016" fill="white"/>
<rect x="58.5484" y="50.8136" width="3.84016" height="3.84016" fill="white"/>
<rect x="58.5484" y="54.6537" width="3.84016" height="3.84016" fill="white"/>
<rect x="54.7083" y="27.7726" width="3.84016" height="3.84016" fill="white"/>
<rect x="62.3886" y="23.9325" width="3.84016" height="3.84016" fill="white"/>
<rect x="62.3886" y="23.9325" width="3.84016" height="3.84016" fill="white"/>
<rect x="58.5484" y="23.9325" width="3.84016" height="3.84016" fill="white"/>
<rect x="58.5484" y="23.9325" width="3.84016" height="3.84016" fill="white"/>
<rect x="20.1468" y="8.57184" width="3.84016" height="3.84016" fill="white"/>
<rect x="43.1878" y="12.412" width="3.84016" height="3.84016" fill="white"/>
<rect x="39.3476" y="12.412" width="3.84016" height="3.84016" fill="white"/>
<rect x="35.5075" y="12.412" width="3.84016" height="3.84016" fill="white"/>
<rect x="31.6674" y="12.412" width="3.84016" height="3.84016" fill="white"/>
<rect x="27.8271" y="12.412" width="3.84016" height="3.84016" fill="white"/>
<rect x="23.987" y="12.412" width="3.84016" height="3.84016" fill="white"/>
<rect x="47.0279" y="12.412" width="3.84016" height="3.84016" fill="white"/>
<rect x="20.1468" y="12.412" width="3.84016" height="3.84016" fill="white"/>
<rect x="43.1878" y="16.2522" width="3.84016" height="3.84016" fill="white"/>
<rect x="39.3476" y="16.2522" width="3.84016" height="3.84016" fill="white"/>
<rect x="35.5075" y="16.2522" width="3.84016" height="3.84016" fill="white"/>
<rect x="31.6674" y="16.2522" width="3.84016" height="3.84016" fill="white"/>
<rect x="27.8271" y="16.2522" width="3.84016" height="3.84016" fill="white"/>
<rect x="23.987" y="16.2522" width="3.84016" height="3.84016" fill="white"/>
<rect x="47.0279" y="16.2522" width="3.84016" height="3.84016" fill="white"/>
<rect x="20.1468" y="16.2522" width="3.84016" height="3.84016" fill="white"/>
<rect x="43.1878" y="20.0923" width="3.84016" height="3.84016" fill="white"/>
<rect x="39.3476" y="20.0923" width="3.84016" height="3.84016" fill="white"/>
<rect x="35.5075" y="20.0923" width="3.84016" height="3.84016" fill="white"/>
<rect x="31.6674" y="20.0923" width="3.84016" height="3.84016" fill="white"/>
<rect x="27.8271" y="20.0923" width="3.84016" height="3.84016" fill="white"/>
<rect x="23.987" y="20.0923" width="3.84016" height="3.84016" fill="white"/>
<rect x="47.0279" y="20.0923" width="3.84016" height="3.84016" fill="white"/>
<rect x="43.1878" y="23.9325" width="3.84016" height="3.84016" fill="white"/>
<rect x="39.3476" y="23.9325" width="3.84016" height="3.84016" fill="white"/>
<rect x="35.5075" y="23.9325" width="3.84016" height="3.84016" fill="white"/>
<rect x="31.6674" y="23.9325" width="3.84016" height="3.84016" fill="white"/>
<rect x="27.8271" y="23.9325" width="3.84016" height="3.84016" fill="white"/>
<rect x="47.0279" y="23.9325" width="3.84016" height="3.84016" fill="white"/>
<rect x="47.0279" y="27.7726" width="3.84016" height="3.84016" fill="white"/>
<rect x="43.1878" y="27.7726" width="3.84016" height="3.84016" fill="white"/>
<rect x="39.3476" y="27.7726" width="3.84016" height="3.84016" fill="white"/>
<rect x="35.5075" y="27.7726" width="3.84016" height="3.84016" fill="white"/>
<rect x="31.6674" y="27.7726" width="3.84016" height="3.84016" fill="white"/>
<rect x="20.1468" y="20.0923" width="3.84016" height="3.84016" fill="white"/>
<rect x="16.3067" y="8.57184" width="3.84016" height="3.84016" fill="white"/>
<rect x="16.3067" y="12.412" width="3.84016" height="3.84016" fill="white"/>
<rect x="12.4665" y="12.412" width="3.84016" height="3.84016" fill="white"/>
<rect x="12.4665" y="16.2522" width="3.84016" height="3.84016" fill="white"/>
<rect x="8.62631" y="16.2522" width="3.84016" height="3.84016" fill="white"/>
<rect x="8.62631" y="20.0923" width="3.84016" height="3.84016" fill="white"/>
<rect x="4.78616" y="20.0923" width="3.84016" height="3.84016" fill="white"/>
<rect x="4.78616" y="23.9325" width="3.84016" height="3.84016" fill="white"/>
<rect x="4.78616" y="27.7726" width="3.84016" height="3.84016" fill="white"/>
<rect x="8.62631" y="27.7726" width="3.84016" height="3.84016" fill="white"/>
<rect x="8.62631" y="23.9325" width="3.84016" height="3.84016" fill="white"/>
<rect x="12.4665" y="23.9325" width="3.84016" height="3.84016" fill="white"/>
<rect x="12.4665" y="20.0923" width="3.84016" height="3.84016" fill="white"/>
<rect x="16.3067" y="20.0923" width="3.84016" height="3.84016" fill="white"/>
<rect x="16.3067" y="16.2522" width="3.84016" height="3.84016" fill="white"/>
<rect x="16.3067" y="23.9325" width="3.84016" height="3.84016" fill="white"/>
<rect x="20.1468" y="23.9325" width="3.84016" height="3.84016" fill="white"/>
<rect x="23.987" y="23.9325" width="3.84016" height="3.84016" fill="white"/>
<rect x="23.987" y="27.7726" width="3.84016" height="3.84016" fill="white"/>
<rect x="27.8271" y="27.7726" width="3.84016" height="3.84016" fill="white"/>
<rect x="27.8271" y="31.6128" width="3.84016" height="3.84016" fill="white"/>
<rect x="31.6674" y="31.6128" width="3.84016" height="3.84016" fill="white"/>
<rect x="35.5075" y="35.4529" width="3.84016" height="3.84016" fill="white"/>
<rect x="35.5075" y="35.4529" width="3.84016" height="3.84016" fill="white"/>
<rect x="39.3476" y="35.4529" width="3.84016" height="3.84016" fill="white"/>
<rect x="39.3476" y="39.2931" width="3.84016" height="3.84016" fill="white"/>
<rect x="43.1878" y="39.2931" width="3.84016" height="3.84016" fill="white"/>
<rect x="43.1878" y="43.1333" width="3.84016" height="3.84016" fill="white"/>
<rect x="47.0279" y="43.1333" width="3.84016" height="3.84016" fill="white"/>
<rect x="47.0279" y="46.9734" width="3.84016" height="3.84016" fill="white"/>
<rect x="50.8681" y="46.9734" width="3.84016" height="3.84016" fill="white"/>
<rect x="50.8681" y="50.8136" width="3.84016" height="3.84016" fill="white"/>
<rect x="50.8681" y="54.6537" width="3.84016" height="3.84016" fill="white"/>
<rect x="54.7083" y="54.6537" width="3.84016" height="3.84016" fill="white"/>
<rect x="54.7083" y="58.4939" width="3.84016" height="3.84016" fill="white"/>
<rect x="58.5484" y="58.4939" width="3.84016" height="3.84016" fill="white"/>
<rect x="58.5484" y="62.3341" width="3.84016" height="3.84016" fill="white"/>
<rect x="62.3886" y="62.3341" width="3.84016" height="3.84016" fill="white"/>
<rect x="35.5075" y="31.6128" width="3.84016" height="3.84016" fill="white"/>
<rect x="35.5075" y="31.6128" width="3.84016" height="3.84016" fill="white"/>
<rect x="0.946014" y="27.7726" width="3.84016" height="3.84016" fill="white"/>
<rect x="0.946014" y="31.6128" width="3.84016" height="3.84016" fill="white"/>
<rect x="0.946014" y="35.4529" width="3.84016" height="3.84016" fill="white"/>
<rect x="0.946014" y="39.2931" width="3.84016" height="3.84016" fill="white"/>
<rect x="0.946014" y="43.1333" width="3.84016" height="3.84016" fill="white"/>
<rect x="4.78616" y="43.1333" width="3.84016" height="3.84016" fill="white"/>
<rect x="4.78616" y="46.9734" width="3.84016" height="3.84016" fill="white"/>
<rect x="0.946014" y="46.9734" width="3.84016" height="3.84016" fill="white"/>
<rect x="0.946014" y="50.8136" width="3.84016" height="3.84016" fill="white"/>
<rect x="4.78616" y="50.8136" width="3.84016" height="3.84016" fill="white"/>
<rect x="8.62631" y="50.8136" width="3.84016" height="3.84016" fill="white"/>
<rect x="8.62631" y="46.9734" width="3.84016" height="3.84016" fill="white"/>
<rect x="8.62631" y="43.1333" width="3.84016" height="3.84016" fill="white"/>
<rect x="12.4665" y="50.8136" width="3.84016" height="3.84016" fill="white"/>
<rect x="12.4665" y="54.6537" width="3.84016" height="3.84016" fill="white"/>
<rect x="8.62631" y="54.6537" width="3.84016" height="3.84016" fill="white"/>
<rect x="4.78616" y="54.6537" width="3.84016" height="3.84016" fill="white"/>
<rect x="4.78616" y="58.4939" width="3.84016" height="3.84016" fill="white"/>
<rect x="8.62631" y="58.4939" width="3.84016" height="3.84016" fill="white"/>
<rect x="12.4665" y="58.4939" width="3.84016" height="3.84016" fill="white"/>
<rect x="12.4665" y="62.3341" width="3.84016" height="3.84016" fill="white"/>
<rect x="8.62631" y="62.3341" width="3.84016" height="3.84016" fill="white"/>
<rect x="8.62631" y="66.1743" width="3.84016" height="3.84016" fill="white"/>
<rect x="12.4665" y="66.1743" width="3.84016" height="3.84016" fill="white"/>
<rect x="16.3067" y="66.1743" width="3.84016" height="3.84016" fill="white"/>
<rect x="16.3067" y="62.3341" width="3.84016" height="3.84016" fill="white"/>
<rect x="16.3067" y="58.4939" width="3.84016" height="3.84016" fill="white"/>
<rect x="20.1468" y="62.3341" width="3.84016" height="3.84016" fill="white"/>
<rect x="20.1468" y="66.1743" width="3.84016" height="3.84016" fill="white"/>
<rect x="20.1468" y="70.0144" width="3.84016" height="3.84016" fill="white"/>
<rect x="16.3067" y="70.0144" width="3.84016" height="3.84016" fill="white"/>
<rect x="12.4665" y="70.0144" width="3.84016" height="3.84016" fill="white"/>
<rect x="16.3067" y="73.8546" width="3.84016" height="3.84016" fill="white"/>
<rect x="20.1468" y="73.8546" width="3.84016" height="3.84016" fill="white"/>
<rect x="23.987" y="73.8546" width="3.84016" height="3.84016" fill="white"/>
<rect x="23.987" y="77.6947" width="3.84016" height="3.84016" fill="white"/>
<rect x="27.8271" y="77.6947" width="3.84016" height="3.84016" fill="white"/>
<rect x="27.8271" y="73.8546" width="3.84016" height="3.84016" fill="white"/>
<rect x="27.8271" y="70.0144" width="3.84016" height="3.84016" fill="white"/>
<rect x="23.987" y="66.1743" width="3.84016" height="3.84016" fill="white"/>
<rect x="27.8271" y="66.1743" width="3.84016" height="3.84016" fill="white"/>
<rect x="31.6674" y="66.1743" width="3.84016" height="3.84016" fill="white"/>
<rect x="31.6674" y="62.3341" width="3.84016" height="3.84016" fill="white"/>
<rect x="31.6674" y="58.4939" width="3.84016" height="3.84016" fill="white"/>
<rect x="35.5075" y="62.3341" width="3.84016" height="3.84016" fill="white"/>
<rect x="35.5075" y="66.1743" width="3.84016" height="3.84016" fill="white"/>
<rect x="39.3476" y="66.1743" width="3.84016" height="3.84016" fill="white"/>
<rect x="35.5075" y="58.4939" width="3.84016" height="3.84016" fill="white"/>
<rect x="39.3476" y="62.3341" width="3.84016" height="3.84016" fill="white"/>
<rect x="43.1878" y="66.1743" width="3.84016" height="3.84016" fill="white"/>
<rect x="47.0279" y="70.0144" width="3.84016" height="3.84016" fill="white"/>
<rect x="43.1878" y="70.0144" width="3.84016" height="3.84016" fill="white"/>
<rect x="39.3476" y="70.0144" width="3.84016" height="3.84016" fill="white"/>
<rect x="35.5075" y="70.0144" width="3.84016" height="3.84016" fill="white"/>
<rect x="31.6674" y="70.0144" width="3.84016" height="3.84016" fill="white"/>
<rect x="31.6674" y="77.6947" width="3.84016" height="3.84016" fill="white"/>
<rect x="35.5075" y="77.6947" width="3.84016" height="3.84016" fill="white"/>
<rect x="39.3476" y="77.6947" width="3.84016" height="3.84016" fill="white"/>
<rect x="43.1878" y="77.6947" width="3.84016" height="3.84016" fill="white"/>
<rect x="47.0279" y="77.6947" width="3.84016" height="3.84016" fill="white"/>
<rect x="50.8681" y="77.6947" width="3.84016" height="3.84016" fill="white"/>
<rect x="62.3886" y="77.6947" width="3.84016" height="3.84016" fill="white"/>
<rect x="50.8681" y="73.8546" width="3.84016" height="3.84016" fill="white"/>
<rect x="50.8681" y="70.0144" width="3.84016" height="3.84016" fill="white"/>
<rect x="54.7083" y="73.8546" width="3.84016" height="3.84016" fill="white"/>
<rect x="58.5484" y="73.8546" width="3.84016" height="3.84016" fill="white"/>
<rect x="66.2286" y="73.8546" width="3.84016" height="3.84016" fill="white"/>
<rect x="70.0687" y="73.8546" width="3.84016" height="3.84016" fill="white"/>
<rect x="73.9093" y="73.8546" width="3.84016" height="3.84016" fill="white"/>
<rect x="58.5484" y="70.0144" width="3.84016" height="3.84016" fill="white"/>
<rect x="62.3886" y="70.0144" width="3.84016" height="3.84016" fill="white"/>
<rect x="66.2288" y="70.0144" width="3.84016" height="3.84016" fill="white"/>
<rect x="62.3886" y="66.1743" width="3.84016" height="3.84016" fill="white"/>
<rect x="70.0689" y="66.1743" width="3.84016" height="3.84016" fill="white"/>
<rect x="77.7492" y="66.1743" width="3.84016" height="3.84016" fill="white"/>
<rect x="85.4296" y="66.1743" width="3.84016" height="3.84016" fill="white"/>
<rect x="81.5888" y="73.8546" width="3.84016" height="3.84016" fill="white"/>
<rect x="89.2683" y="66.1743" width="3.84016" height="3.84016" fill="white"/>
<rect x="93.1085" y="66.1743" width="3.84016" height="3.84016" fill="white"/>
<rect x="96.9486" y="66.1743" width="3.84016" height="3.84016" fill="white"/>
<rect x="104.629" y="66.1743" width="3.84016" height="3.84016" fill="white"/>
<rect x="108.469" y="66.1743" width="3.84016" height="3.84016" fill="white"/>
<rect x="73.909" y="62.3341" width="3.84016" height="3.84016" fill="white"/>
<rect x="70.0689" y="62.3341" width="3.84016" height="3.84016" fill="white"/>
<rect x="66.2287" y="62.3341" width="3.84016" height="3.84016" fill="white"/>
<rect x="70.0689" y="58.4939" width="3.84016" height="3.84016" fill="white"/>
<rect x="77.7495" y="58.4939" width="3.84016" height="3.84016" fill="white"/>
<rect x="81.5897" y="58.4939" width="3.84016" height="3.84016" fill="white"/>
<rect x="100.789" y="58.4939" width="19.4549" height="3.84016" fill="white"/>
<rect x="73.909" y="54.6537" width="3.84016" height="3.84016" fill="white"/>
<rect x="81.5894" y="50.8136" width="3.84016" height="3.84016" fill="white"/>
<rect x="77.7492" y="46.9734" width="3.84016" height="3.84016" fill="white"/>
<rect x="85.4294" y="43.1333" width="3.84016" height="3.84016" fill="white"/>
<rect x="90.946" y="43.1333" width="3.84016" height="3.84016" fill="white"/>
<rect x="100.789" y="43.1333" width="3.84016" height="3.84016" fill="white"/>
<rect x="104.631" y="43.1333" width="3.84016" height="3.84016" fill="white"/>
<rect x="96.9505" y="43.1333" width="3.84016" height="3.84016" fill="white"/>
<rect x="81.5894" y="39.2931" width="3.84016" height="3.84016" fill="white"/>
<rect x="81.5894" y="35.4529" width="3.84016" height="3.84016" fill="white"/>
<rect x="81.5894" y="27.7726" width="3.84016" height="3.84016" fill="white"/>
<rect x="77.7492" y="27.7726" width="3.84016" height="3.84016" fill="white"/>
<rect x="77.7492" y="23.9325" width="3.84016" height="3.84016" fill="white"/>
<rect x="81.5894" y="20.0923" width="3.84016" height="3.84016" fill="white"/>
<rect x="93.1098" y="16.2521" width="3.84016" height="3.84016" fill="white"/>
<rect x="96.9486" y="16.2521" width="3.84016" height="3.84016" fill="white"/>
<rect x="89.2697" y="12.412" width="3.84016" height="3.84016" fill="white"/>
<rect x="89.2697" y="8.57184" width="3.84016" height="3.84016" fill="white"/>
<rect x="85.4295" y="8.57184" width="3.84016" height="3.84016" fill="white"/>
<rect x="85.4295" y="12.412" width="3.84016" height="3.84016" fill="white"/>
<rect x="81.5894" y="12.412" width="3.84016" height="3.84016" fill="white"/>
<rect x="81.5894" y="16.2522" width="3.84016" height="3.84016" fill="white"/>
<rect x="77.7492" y="16.2522" width="3.84016" height="3.84016" fill="white"/>
<rect x="77.7492" y="20.0923" width="3.84016" height="3.84016" fill="white"/>
<rect x="73.909" y="16.2522" width="3.84016" height="3.84016" fill="white"/>
<rect x="73.909" y="12.412" width="3.84016" height="3.84016" fill="white"/>
<rect x="77.7492" y="12.412" width="3.84016" height="3.84016" fill="white"/>
<rect x="73.909" y="8.57184" width="3.84016" height="3.84016" fill="white"/>
<rect x="70.0689" y="4.73169" width="3.84016" height="3.84016" fill="white"/>
<rect x="66.2287" y="0.891541" width="3.84016" height="3.84016" fill="white"/>
<rect x="66.2287" y="4.73169" width="3.84016" height="3.84016" fill="white"/>
<rect x="70.0689" y="8.57184" width="3.84016" height="3.84016" fill="white"/>
<rect x="66.2287" y="8.57184" width="3.84016" height="3.84016" fill="white"/>
<rect x="70.0689" y="12.412" width="3.84016" height="3.84016" fill="white"/>
<rect x="70.0689" y="16.2522" width="3.84016" height="3.84016" fill="white"/>
<rect x="66.2287" y="12.412" width="3.84016" height="3.84016" fill="white"/>
<rect x="73.909" y="20.0923" width="3.84016" height="3.84016" fill="white"/>
<rect x="85.4295" y="20.0923" width="3.84016" height="3.84016" fill="white"/>
<rect x="85.4295" y="23.9325" width="3.84016" height="3.84016" fill="white"/>
<rect x="89.2697" y="23.9325" width="3.84016" height="3.84016" fill="white"/>
<rect x="108.471" y="23.9325" width="3.84016" height="3.84016" fill="white"/>
<rect x="104.631" y="23.9325" width="3.84016" height="3.84016" fill="white"/>
<rect x="104.631" y="16.2521" width="3.84016" height="3.84016" fill="white"/>
<rect x="93.1098" y="12.412" width="3.84016" height="3.84016" fill="white"/>
<rect x="93.1098" y="4.73169" width="3.84016" height="3.84016" fill="white"/>
<rect x="96.95" y="4.73169" width="3.84016" height="3.84016" fill="white"/>
<rect x="100.79" y="4.73169" width="3.84016" height="3.84016" fill="white"/>
<rect x="73.909" y="27.7726" width="3.84016" height="3.84016" fill="white"/>
<rect x="73.909" y="31.6128" width="3.84016" height="3.84016" fill="white"/>
<rect x="77.7492" y="31.6128" width="3.84016" height="3.84016" fill="white"/>
<rect x="89.2697" y="35.4529" width="3.84016" height="3.84016" fill="white"/>
<rect x="93.1085" y="35.4529" width="3.84016" height="3.84016" fill="white"/>
<rect x="112.106" y="35.4529" width="3.84016" height="3.84016" fill="white"/>
<rect x="104.426" y="35.4529" width="3.84016" height="3.84016" fill="white"/>
<rect x="73.909" y="35.4529" width="3.84016" height="3.84016" fill="white"/>
<rect x="73.909" y="39.2931" width="3.84016" height="3.84016" fill="white"/>
<rect x="70.0689" y="39.2931" width="3.84016" height="3.84016" fill="white"/>
<rect x="70.0689" y="43.1333" width="3.84016" height="3.84016" fill="white"/>
<rect x="73.909" y="43.1333" width="3.84016" height="3.84016" fill="white"/>
<rect x="77.7492" y="39.2931" width="3.84016" height="3.84016" fill="white"/>
<rect x="73.909" y="46.9734" width="3.84016" height="3.84016" fill="white"/>
<rect x="70.0689" y="46.9734" width="3.84016" height="3.84016" fill="white"/>
<rect x="66.2287" y="46.9734" width="3.84016" height="3.84016" fill="white"/>
<rect x="66.2287" y="50.8136" width="3.84016" height="3.84016" fill="white"/>
<rect x="70.0689" y="50.8136" width="3.84016" height="3.84016" fill="white"/>
<rect x="66.2287" y="54.6537" width="3.84016" height="3.84016" fill="white"/>
<rect x="66.2287" y="58.4939" width="3.84016" height="3.84016" fill="white"/>
<rect x="73.9093" y="58.4939" width="3.84016" height="3.84016" fill="white"/>
<rect x="62.3886" y="50.8136" width="3.84016" height="3.84016" fill="white"/>
<rect x="62.3886" y="58.4939" width="3.84016" height="3.84016" fill="white"/>
<rect x="62.3886" y="54.6537" width="3.84016" height="3.84016" fill="white"/>
<rect x="62.3886" y="50.8136" width="3.84016" height="3.84016" fill="white"/>
<rect x="62.3886" y="58.4939" width="3.84016" height="3.84016" fill="white"/>
<rect x="62.3886" y="54.6537" width="3.84016" height="3.84016" fill="white"/>
<rect x="54.7083" y="70.0144" width="3.84016" height="3.84016" fill="white"/>
<rect x="31.6674" y="73.8546" width="3.84016" height="3.84016" fill="white"/>
<rect x="35.5075" y="73.8546" width="3.84016" height="3.84016" fill="white"/>
<rect x="39.3476" y="73.8546" width="3.84016" height="3.84016" fill="white"/>
<rect x="43.1878" y="73.8546" width="3.84016" height="3.84016" fill="white"/>
<rect x="47.0279" y="73.8546" width="3.84016" height="3.84016" fill="white"/>
<rect x="23.987" y="70.0144" width="3.84016" height="3.84016" fill="white"/>
<rect x="4.78616" y="39.2931" width="3.84016" height="3.84016" fill="white"/>
<rect x="4.78616" y="35.4529" width="3.84016" height="3.84016" fill="white"/>
<rect x="4.78616" y="31.6128" width="3.84016" height="3.84016" fill="white"/>
</svg>
