<svg width="16" height="16" viewBox="0 0 16 16" fill="none" xmlns="http://www.w3.org/2000/svg">
<path d="M3.90454 9.37305V12.0953H6.62677V9.37305H3.90454Z" fill="#FF3270"/>
<path d="M9.3728 9.37305V12.0953H12.0951V9.37305H9.3728Z" fill="#861FFF"/>
<path d="M3.90454 3.90503V6.62727H6.62677V3.90503H3.90454Z" fill="#097EFF"/>
<path fill-rule="evenodd" clip-rule="evenodd" d="M2 3.20887C2 2.54123 2.54123 2 3.20887 2H7.32285C7.8813 2 8.3513 2.37862 8.4901 2.89315C9.07525 2.33951 9.8651 2 10.7343 2C12.5379 2 14.0001 3.46218 14.0001 5.26585C14.0001 6.135 13.6606 6.92485 13.1069 7.51C13.6215 7.64885 14.0001 8.1188 14.0001 8.67725V12.7912C14.0001 13.4588 13.4588 14.0001 12.7912 14.0001H8.53175H7.46835H3.20887C2.54123 14.0001 2 13.4588 2 12.7912V7.57935V7.46835V3.20887ZM3.90476 3.90476V6.627H6.627V3.90476H3.90476ZM3.90476 12.0954V9.3731H6.627V12.0954H3.90476ZM9.3731 12.0954V9.3731H12.0954V12.0954H9.3731ZM9.3731 5.26585C9.3731 4.51415 9.98255 3.90476 10.7343 3.90476C11.486 3.90476 12.0954 4.51415 12.0954 5.26585C12.0954 6.0176 11.486 6.627 10.7343 6.627C9.98255 6.627 9.3731 6.0176 9.3731 5.26585Z" fill="black"/>
<path d="M10.734 3.90503C9.98225 3.90503 9.3728 4.51442 9.3728 5.26617C9.3728 6.01787 9.98225 6.62727 10.734 6.62727C11.4857 6.62727 12.0951 6.01787 12.0951 5.26617C12.0951 4.51442 11.4857 3.90503 10.734 3.90503Z" fill="#FFD702"/>
</svg>
